<?xml version="1.0" encoding="UTF-8"?>
<!-- Do not edit this file with editors other than draw.io -->
<!DOCTYPE svg PUBLIC "-//W3C//DTD SVG 1.1//EN" "http://www.w3.org/Graphics/SVG/1.1/DTD/svg11.dtd">
<svg xmlns="http://www.w3.org/2000/svg" style="background: transparent; background-color: transparent; color-scheme: light dark;" xmlns:xlink="http://www.w3.org/1999/xlink" version="1.1" width="831px" height="691px" viewBox="0 0 831 691" content="&lt;mxfile host=&quot;Electron&quot; agent=&quot;Mozilla/5.0 (X11; Linux x86_64) AppleWebKit/537.36 (KHTML, like Gecko) draw.io/29.6.1 Chrome/142.0.7444.265 Electron/39.8.0 Safari/537.36&quot; version=&quot;29.6.1&quot;&gt;&#10;  &lt;diagram name=&quot;Page-1&quot; id=&quot;wginiJiUfPOdYNWeTHu8&quot;&gt;&#10;    &lt;mxGraphModel dx=&quot;1015&quot; dy=&quot;828&quot; grid=&quot;1&quot; gridSize=&quot;10&quot; guides=&quot;1&quot; tooltips=&quot;1&quot; connect=&quot;1&quot; arrows=&quot;1&quot; fold=&quot;1&quot; page=&quot;1&quot; pageScale=&quot;1&quot; pageWidth=&quot;850&quot; pageHeight=&quot;1100&quot; math=&quot;0&quot; shadow=&quot;0&quot;&gt;&#10;      &lt;root&gt;&#10;        &lt;mxCell id=&quot;0&quot; /&gt;&#10;        &lt;mxCell id=&quot;1&quot; parent=&quot;0&quot; /&gt;&#10;        &lt;mxCell id=&quot;72IUadlfIgPiFhbqOXH1-12&quot; edge=&quot;1&quot; parent=&quot;1&quot; source=&quot;72IUadlfIgPiFhbqOXH1-2&quot; style=&quot;edgeStyle=orthogonalEdgeStyle;rounded=0;orthogonalLoop=1;jettySize=auto;html=1;&quot; target=&quot;72IUadlfIgPiFhbqOXH1-3&quot;&gt;&#10;          &lt;mxGeometry relative=&quot;1&quot; as=&quot;geometry&quot; /&gt;&#10;        &lt;/mxCell&gt;&#10;        &lt;mxCell id=&quot;72IUadlfIgPiFhbqOXH1-2&quot; parent=&quot;1&quot; style=&quot;image;aspect=fixed;perimeter=ellipsePerimeter;html=1;align=center;shadow=0;dashed=0;spacingTop=3;image=img/lib/active_directory/generic_server.svg;&quot; value=&quot;Host&quot; vertex=&quot;1&quot;&gt;&#10;          &lt;mxGeometry height=&quot;105.36&quot; width=&quot;59&quot; x=&quot;395&quot; y=&quot;110&quot; as=&quot;geometry&quot; /&gt;&#10;        &lt;/mxCell&gt;&#10;        &lt;mxCell id=&quot;72IUadlfIgPiFhbqOXH1-8&quot; edge=&quot;1&quot; parent=&quot;1&quot; source=&quot;72IUadlfIgPiFhbqOXH1-3&quot; style=&quot;edgeStyle=orthogonalEdgeStyle;rounded=0;orthogonalLoop=1;jettySize=auto;html=1;entryX=0.5;entryY=0;entryDx=0;entryDy=0;&quot; target=&quot;72IUadlfIgPiFhbqOXH1-4&quot;&gt;&#10;          &lt;mxGeometry relative=&quot;1&quot; as=&quot;geometry&quot; /&gt;&#10;        &lt;/mxCell&gt;&#10;        &lt;mxCell id=&quot;72IUadlfIgPiFhbqOXH1-9&quot; edge=&quot;1&quot; parent=&quot;1&quot; source=&quot;72IUadlfIgPiFhbqOXH1-3&quot; style=&quot;edgeStyle=orthogonalEdgeStyle;rounded=0;orthogonalLoop=1;jettySize=auto;html=1;entryX=0.5;entryY=0;entryDx=0;entryDy=0;&quot; target=&quot;72IUadlfIgPiFhbqOXH1-6&quot;&gt;&#10;          &lt;mxGeometry relative=&quot;1&quot; as=&quot;geometry&quot; /&gt;&#10;        &lt;/mxCell&gt;&#10;        &lt;mxCell id=&quot;72IUadlfIgPiFhbqOXH1-10&quot; edge=&quot;1&quot; parent=&quot;1&quot; source=&quot;72IUadlfIgPiFhbqOXH1-3&quot; style=&quot;edgeStyle=orthogonalEdgeStyle;rounded=0;orthogonalLoop=1;jettySize=auto;html=1;entryX=0.5;entryY=0;entryDx=0;entryDy=0;&quot; target=&quot;72IUadlfIgPiFhbqOXH1-7&quot;&gt;&#10;          &lt;mxGeometry relative=&quot;1&quot; as=&quot;geometry&quot; /&gt;&#10;        &lt;/mxCell&gt;&#10;        &lt;mxCell id=&quot;72IUadlfIgPiFhbqOXH1-11&quot; edge=&quot;1&quot; parent=&quot;1&quot; source=&quot;72IUadlfIgPiFhbqOXH1-3&quot; style=&quot;edgeStyle=orthogonalEdgeStyle;rounded=0;orthogonalLoop=1;jettySize=auto;html=1;entryX=0.5;entryY=0;entryDx=0;entryDy=0;&quot; target=&quot;72IUadlfIgPiFhbqOXH1-5&quot;&gt;&#10;          &lt;mxGeometry relative=&quot;1&quot; as=&quot;geometry&quot; /&gt;&#10;        &lt;/mxCell&gt;&#10;        &lt;mxCell id=&quot;72IUadlfIgPiFhbqOXH1-3&quot; parent=&quot;1&quot; style=&quot;pointerEvents=1;shadow=0;dashed=0;html=1;strokeColor=none;fillColor=#4495D1;labelPosition=center;verticalLabelPosition=bottom;verticalAlign=top;align=center;outlineConnect=0;shape=mxgraph.veeam.hyper_v_vmware_host;&quot; value=&quot;VMware&quot; vertex=&quot;1&quot;&gt;&#10;          &lt;mxGeometry height=&quot;110&quot; width=&quot;109&quot; x=&quot;370&quot; y=&quot;340&quot; as=&quot;geometry&quot; /&gt;&#10;        &lt;/mxCell&gt;&#10;        &lt;mxCell id=&quot;72IUadlfIgPiFhbqOXH1-4&quot; parent=&quot;1&quot; style=&quot;swimlane;whiteSpace=wrap;html=1;startSize=23;&quot; value=&quot;LAN&quot; vertex=&quot;1&quot;&gt;&#10;          &lt;mxGeometry height=&quot;200&quot; width=&quot;200&quot; x=&quot;10&quot; y=&quot;600&quot; as=&quot;geometry&quot; /&gt;&#10;        &lt;/mxCell&gt;&#10;        &lt;mxCell id=&quot;72IUadlfIgPiFhbqOXH1-13&quot; parent=&quot;72IUadlfIgPiFhbqOXH1-4&quot; style=&quot;image;html=1;image=img/lib/clip_art/computers/Virtual_Machine_128x128.png&quot; value=&quot;Virtual Machines&quot; vertex=&quot;1&quot;&gt;&#10;          &lt;mxGeometry height=&quot;80&quot; width=&quot;80&quot; x=&quot;60&quot; y=&quot;70&quot; as=&quot;geometry&quot; /&gt;&#10;        &lt;/mxCell&gt;&#10;        &lt;mxCell id=&quot;72IUadlfIgPiFhbqOXH1-5&quot; parent=&quot;1&quot; style=&quot;swimlane;whiteSpace=wrap;html=1;startSize=23;&quot; value=&quot;Malware Isolation Network&amp;amp;nbsp;&quot; vertex=&quot;1&quot;&gt;&#10;          &lt;mxGeometry height=&quot;200&quot; width=&quot;200&quot; x=&quot;640&quot; y=&quot;600&quot; as=&quot;geometry&quot; /&gt;&#10;        &lt;/mxCell&gt;&#10;        &lt;mxCell id=&quot;72IUadlfIgPiFhbqOXH1-17&quot; parent=&quot;72IUadlfIgPiFhbqOXH1-5&quot; style=&quot;image;html=1;image=img/lib/clip_art/computers/Virtual_Machine_128x128.png&quot; value=&quot;Virtual Machines&quot; vertex=&quot;1&quot;&gt;&#10;          &lt;mxGeometry height=&quot;80&quot; width=&quot;80&quot; x=&quot;60&quot; y=&quot;70&quot; as=&quot;geometry&quot; /&gt;&#10;        &lt;/mxCell&gt;&#10;        &lt;mxCell id=&quot;72IUadlfIgPiFhbqOXH1-6&quot; parent=&quot;1&quot; style=&quot;swimlane;whiteSpace=wrap;html=1;startSize=23;&quot; value=&quot;Attack Network&quot; vertex=&quot;1&quot;&gt;&#10;          &lt;mxGeometry height=&quot;200&quot; width=&quot;200&quot; x=&quot;220&quot; y=&quot;600&quot; as=&quot;geometry&quot; /&gt;&#10;        &lt;/mxCell&gt;&#10;        &lt;mxCell id=&quot;72IUadlfIgPiFhbqOXH1-14&quot; parent=&quot;72IUadlfIgPiFhbqOXH1-6&quot; style=&quot;image;html=1;image=img/lib/clip_art/computers/Virtual_Machine_128x128.png&quot; value=&quot;Virtual Machines&quot; vertex=&quot;1&quot;&gt;&#10;          &lt;mxGeometry height=&quot;80&quot; width=&quot;80&quot; x=&quot;60&quot; y=&quot;70&quot; as=&quot;geometry&quot; /&gt;&#10;        &lt;/mxCell&gt;&#10;        &lt;mxCell id=&quot;72IUadlfIgPiFhbqOXH1-7&quot; parent=&quot;1&quot; style=&quot;swimlane;whiteSpace=wrap;html=1;&quot; value=&quot;Target Network&quot; vertex=&quot;1&quot;&gt;&#10;          &lt;mxGeometry height=&quot;200&quot; width=&quot;200&quot; x=&quot;430&quot; y=&quot;600&quot; as=&quot;geometry&quot; /&gt;&#10;        &lt;/mxCell&gt;&#10;        &lt;mxCell id=&quot;72IUadlfIgPiFhbqOXH1-16&quot; parent=&quot;72IUadlfIgPiFhbqOXH1-7&quot; style=&quot;image;html=1;image=img/lib/clip_art/computers/Virtual_Machine_128x128.png&quot; value=&quot;Virtual Machines&quot; vertex=&quot;1&quot;&gt;&#10;          &lt;mxGeometry height=&quot;80&quot; width=&quot;80&quot; x=&quot;60&quot; y=&quot;70&quot; as=&quot;geometry&quot; /&gt;&#10;        &lt;/mxCell&gt;&#10;      &lt;/root&gt;&#10;    &lt;/mxGraphModel&gt;&#10;  &lt;/diagram&gt;&#10;&lt;/mxfile&gt;&#10;"><defs/><g><g data-cell-id="0"><g data-cell-id="1"><g data-cell-id="72IUadlfIgPiFhbqOXH1-12"><g transform="translate(0.5,0.5)"><path d="M 414.5 105.36 L 414.5 223.63" fill="none" stroke="#000000" stroke-miterlimit="10" pointer-events="stroke" style="stroke: light-dark(rgb(0, 0, 0), rgb(255, 255, 255));"/><path d="M 414.5 228.88 L 411 221.88 L 414.5 223.63 L 418 221.88 Z" fill="#000000" stroke="#000000" stroke-miterlimit="10" pointer-events="all" style="fill: light-dark(rgb(0, 0, 0), rgb(255, 255, 255)); stroke: light-dark(rgb(0, 0, 0), rgb(255, 255, 255));"/></g></g><g data-cell-id="72IUadlfIgPiFhbqOXH1-2"><g><image x="385" y="0" width="59" height="105.36" xlink:href="file:///opt/drawio/resources/app.asar/drawio/src/main/webapp/img/lib/active_directory/generic_server.svg"/></g><g><g><switch><foreignObject style="overflow: visible; text-align: left;" pointer-events="none" width="100%" height="100%" requiredFeatures="http://www.w3.org/TR/SVG11/feature#Extensibility"><div xmlns="http://www.w3.org/1999/xhtml" style="display: flex; align-items: unsafe flex-start; justify-content: unsafe center; width: 1px; height: 1px; padding-top: 115px; margin-left: 415px;"><div style="box-sizing: border-box; font-size: 0; text-align: center; color: #000000; background-color: #ffffff; "><div style="display: inline-block; font-size: 12px; font-family: Helvetica; color: light-dark(#000000, #ffffff); line-height: 1.2; pointer-events: all; background-color: light-dark(#ffffff, var(--ge-dark-color, #121212)); white-space: nowrap; ">Host</div></div></div></foreignObject><text x="415" y="127" fill="light-dark(#000000, #ffffff)" font-family="Helvetica" font-size="12px" text-anchor="middle">Host</text></switch></g></g></g><g data-cell-id="72IUadlfIgPiFhbqOXH1-8"><g transform="translate(0.5,0.5)"><path d="M 360 285 L 100 285 L 100 483.63" fill="none" stroke="#000000" stroke-miterlimit="10" pointer-events="stroke" style="stroke: light-dark(rgb(0, 0, 0), rgb(255, 255, 255));"/><path d="M 100 488.88 L 96.5 481.88 L 100 483.63 L 103.5 481.88 Z" fill="#000000" stroke="#000000" stroke-miterlimit="10" pointer-events="all" style="fill: light-dark(rgb(0, 0, 0), rgb(255, 255, 255)); stroke: light-dark(rgb(0, 0, 0), rgb(255, 255, 255));"/></g></g><g data-cell-id="72IUadlfIgPiFhbqOXH1-9"><g transform="translate(0.5,0.5)"><path d="M 414.5 340 L 414.5 415 L 310 415 L 310 483.63" fill="none" stroke="#000000" stroke-miterlimit="10" pointer-events="stroke" style="stroke: light-dark(rgb(0, 0, 0), rgb(255, 255, 255));"/><path d="M 310 488.88 L 306.5 481.88 L 310 483.63 L 313.5 481.88 Z" fill="#000000" stroke="#000000" stroke-miterlimit="10" pointer-events="all" style="fill: light-dark(rgb(0, 0, 0), rgb(255, 255, 255)); stroke: light-dark(rgb(0, 0, 0), rgb(255, 255, 255));"/></g></g><g data-cell-id="72IUadlfIgPiFhbqOXH1-10"><g transform="translate(0.5,0.5)"><path d="M 414.5 340 L 414.5 415 L 520 415 L 520 483.63" fill="none" stroke="#000000" stroke-miterlimit="10" pointer-events="stroke" style="stroke: light-dark(rgb(0, 0, 0), rgb(255, 255, 255));"/><path d="M 520 488.88 L 516.5 481.88 L 520 483.63 L 523.5 481.88 Z" fill="#000000" stroke="#000000" stroke-miterlimit="10" pointer-events="all" style="fill: light-dark(rgb(0, 0, 0), rgb(255, 255, 255)); stroke: light-dark(rgb(0, 0, 0), rgb(255, 255, 255));"/></g></g><g data-cell-id="72IUadlfIgPiFhbqOXH1-11"><g transform="translate(0.5,0.5)"><path d="M 469 285 L 730 285 L 730 483.63" fill="none" stroke="#000000" stroke-miterlimit="10" pointer-events="stroke" style="stroke: light-dark(rgb(0, 0, 0), rgb(255, 255, 255));"/><path d="M 730 488.88 L 726.5 481.88 L 730 483.63 L 733.5 481.88 Z" fill="#000000" stroke="#000000" stroke-miterlimit="10" pointer-events="all" style="fill: light-dark(rgb(0, 0, 0), rgb(255, 255, 255)); stroke: light-dark(rgb(0, 0, 0), rgb(255, 255, 255));"/></g></g><g data-cell-id="72IUadlfIgPiFhbqOXH1-3"><g transform="translate(0.5,0.5)"><rect x="360" y="230" width="109" height="110" fill="none" stroke="none" pointer-events="all"/><path d="M 404.15 319.7 L 360.21 292.97 L 468.77 292.97 L 423.47 319.7 Z" fill="#d1d3d4" stroke="none" pointer-events="all" style="fill: rgb(209, 211, 212);"/><rect x="360" y="230" width="0" height="0" fill="none" stroke="none" pointer-events="all"/><path d="M 468.81 292.97 L 360.19 292.97 L 360.19 258.2 L 468.81 258.2 Z" fill="#ef8f21" stroke="none" pointer-events="all" style="fill: rgb(239, 143, 33);"/><rect x="360" y="230" width="0" height="0" fill="none" stroke="none" pointer-events="all"/><path d="M 444.23 255.7 L 444.23 230 L 469 230 L 469 255.7 Z M 416.14 255.7 L 416.14 230 L 440.93 230 L 440.93 255.7 Z M 388.07 255.7 L 388.07 230 L 412.86 230 L 412.86 255.7 Z M 360 255.7 L 360 230 L 384.79 230 L 384.79 255.7 Z M 384.61 340 C 380.9 340 377.4 336.77 377.4 332.46 L 377.4 319.7 L 444.16 319.7 C 448.88 319.7 451.6 323.66 451.6 327.22 L 451.6 340 Z" fill="#4495d1" stroke="none" pointer-events="all" style="fill: rgb(68, 149, 209);"/><path d="M 396.5 275.98 C 395.46 275.98 394.8 276.22 394.73 276.9 C 394.73 277.46 395.05 277.68 395.47 277.7 C 396.07 277.7 396.5 277.23 396.5 276.73 Z M 396.73 278.91 L 396.59 278.25 C 396.25 278.69 395.77 279.01 395.05 279.06 C 394.29 279.12 393.46 278.84 393.07 277.94 C 392.65 276.82 393.09 275.82 393.9 275.34 C 394.63 274.92 395.37 274.77 396.43 274.77 C 396.48 274.33 396.25 274.02 395.76 273.91 C 395.12 273.84 394.34 273.93 393.69 274.35 L 393.34 273.08 C 394.18 272.64 394.91 272.57 395.61 272.55 C 397.45 272.53 398.32 273.52 398.32 275.21 L 398.32 277.76 C 398.32 278.14 398.35 278.53 398.41 278.91 Z M 413.67 282.1 L 413.67 269.34 L 414.98 269.34 L 414.98 282.1 Z M 405.79 275.1 L 407.98 275.08 C 407.96 274.53 407.79 273.91 407.01 273.84 C 406.21 273.84 405.86 274.44 405.79 275.1 Z M 409.41 278.67 C 408.67 278.95 407.89 279.06 407.1 279.04 C 405.08 278.97 404.09 277.8 404.01 275.98 C 404.04 273.51 405.63 272.57 406.94 272.53 C 408.83 272.52 409.45 273.74 409.68 274.84 C 409.75 275.3 409.78 275.8 409.66 276.42 L 405.81 276.42 C 405.86 277.06 406.29 277.39 406.94 277.54 C 407.63 277.67 408.46 277.59 409.15 277.34 Z M 399.77 278.91 L 399.77 272.7 L 401.34 272.68 L 401.43 273.87 C 401.85 272.73 402.79 272.42 403.48 272.59 L 403.48 274.4 C 403.11 274.33 402.75 274.29 402.38 274.46 C 401.96 274.64 401.67 275.05 401.67 275.65 L 401.67 278.91 Z M 385.19 278.86 L 383.44 272.7 L 385.35 272.7 L 386.18 277.12 L 387.28 272.7 L 388.76 272.68 L 389.79 276.97 L 390.69 272.7 L 392.52 272.7 L 390.67 278.86 L 388.92 278.86 L 387.97 275.19 L 386.94 278.86 Z M 373.53 278.86 L 374.06 270.33 L 376.55 270.33 L 378.11 275.74 L 379.77 270.33 L 382.22 270.33 L 382.68 278.86 L 380.86 278.86 L 380.62 272.44 L 378.69 278.86 L 377.22 278.86 L 375.56 272.53 L 375.26 278.86 Z M 367.86 278.86 L 365.21 270.33 L 367.26 270.33 L 369.03 276.66 L 370.85 270.33 L 372.84 270.33 L 370.05 278.86 Z M 419.32 278.95 L 419.32 270.3 L 421.2 270.3 L 421.2 273.62 L 424.3 273.62 L 424.29 270.3 L 426.18 270.28 L 426.18 278.93 L 424.29 278.95 L 424.3 275.32 L 421.21 275.32 L 421.21 278.93 Z M 428.07 281.77 L 427.68 280.11 C 428.51 279.94 429 279.44 429.23 279.04 C 429.37 278.82 429.39 278.67 429.27 278.42 L 427.08 272.66 L 429.15 272.66 L 430.38 276.9 L 431.39 272.66 L 433.4 272.66 L 431.78 277.41 C 431.3 278.67 431 279.5 430.35 280.4 C 429.69 281.26 428.95 281.64 428.07 281.77 Z M 434.18 281.48 C 434.2 278.47 434.22 275.39 434.13 272.66 L 435.75 272.66 L 435.84 273.58 C 436.39 272.72 437.24 272.46 438.07 272.52 C 439.48 272.64 440.5 274.11 440.35 276.05 C 440.26 277.36 439.82 278.47 438.33 278.99 C 437.62 279.22 436.58 279.08 436.05 278.33 L 436.04 281.48 Z M 437.18 277.58 C 438.07 277.58 438.47 276.79 438.47 275.74 C 438.47 274.77 438 274.06 437.24 274.06 C 436.41 274.06 436.04 274.81 436.04 275.28 L 436.05 276.31 C 436.05 277.08 436.56 277.58 437.18 277.58 Z M 446.62 278.67 C 445.66 279.1 444.74 279.1 443.81 279.04 C 442.15 278.79 441.23 277.65 441.23 275.76 C 441.28 274.02 442.38 272.52 444.23 272.52 C 445.7 272.52 446.6 273.36 446.88 274.84 C 447.01 275.45 446.94 275.92 446.9 276.42 L 443.01 276.42 C 443.07 276.99 443.4 277.41 444.23 277.58 C 445.08 277.68 445.75 277.56 446.37 277.36 Z M 443.01 275.1 L 445.2 275.1 C 445.22 274.59 445.01 273.82 444.13 273.82 C 443.56 273.82 443.07 274.35 443.01 275.1 Z M 448.07 278.95 C 448.07 276.26 448.1 274.15 448.03 272.66 L 449.64 272.68 L 449.71 273.85 C 450.15 272.68 451.09 272.4 451.78 272.55 L 451.78 274.38 C 450.66 274.16 449.94 274.68 449.94 275.76 L 449.94 278.93 Z M 452.38 276.22 L 452.36 274.93 L 455.59 274.93 L 455.59 276.22 Z M 458.44 278.95 L 455.79 270.3 L 457.84 270.3 L 459.62 276.64 L 461.42 270.3 L 463.42 270.3 L 460.63 278.93 Z M 384.77 331.64 C 384.06 331.64 383.23 330.96 383.23 329.84 C 383.23 328.78 384.01 328.07 384.77 328.07 C 385.62 328.07 386.36 328.85 386.36 329.86 C 386.36 330.67 385.76 331.64 384.77 331.64 Z M 389.06 333.73 L 389.06 325.97 L 407.73 325.99 L 407.73 333.73 Z M 413.55 332.74 C 412.43 332.74 411.04 331.75 411.04 329.79 C 411.04 328.3 412.17 326.95 413.55 326.95 C 414.89 326.95 416.09 328.21 416.09 329.79 C 416.09 331.6 414.84 332.74 413.55 332.74 Z M 419.39 333.73 L 419.39 325.99 L 438.07 325.99 L 438.07 333.71 Z M 440.2 331.69 L 440.2 328.01 L 445.77 327.99 L 445.77 331.69 Z M 367.12 246.52 L 364.96 239.55 L 366.62 239.55 L 368.06 244.78 L 369.56 239.55 L 371.18 239.55 L 368.9 246.52 Z M 371.75 246.52 L 372.21 239.55 L 374.22 239.55 L 375.48 244.01 L 376.85 239.55 L 378.85 239.55 L 379.24 246.52 L 377.75 246.52 L 377.52 241.22 L 375.95 246.52 L 374.75 246.52 L 373.41 241.4 L 373.16 246.52 Z M 395.21 246.52 L 393.04 239.55 L 394.7 239.55 L 396.13 244.78 L 397.65 239.55 L 399.25 239.55 L 396.99 246.52 Z M 399.84 246.52 L 400.28 239.55 L 402.29 239.55 L 403.55 243.99 L 404.94 239.55 L 406.94 239.55 L 407.31 246.52 L 405.83 246.52 L 405.6 241.22 L 404.04 246.52 L 402.82 246.52 L 401.5 241.4 L 401.23 246.52 Z M 423.28 246.54 L 421.11 239.57 L 422.79 239.57 L 424.22 244.8 L 425.72 239.57 L 427.33 239.57 L 425.06 246.54 Z M 427.91 246.54 L 428.35 239.57 L 430.38 239.57 L 431.62 244.01 L 433.01 239.57 L 435.01 239.57 L 435.38 246.54 L 433.9 246.54 L 433.67 241.22 L 432.11 246.54 L 430.91 246.54 L 429.57 241.4 L 429.32 246.54 Z M 451.35 246.52 L 449.18 239.55 L 450.86 239.55 L 452.29 244.78 L 453.79 239.55 L 455.41 239.55 L 453.14 246.52 Z M 455.98 246.52 L 456.42 239.55 L 458.45 239.55 L 459.71 244.01 L 461.09 239.55 L 463.08 239.55 L 463.45 246.52 L 461.97 246.52 L 461.74 241.22 L 460.18 246.52 L 458.98 246.52 L 457.64 241.4 L 457.39 246.52 Z" fill="#ffffff" stroke="none" pointer-events="all" style="fill: rgb(255, 255, 255);"/></g><g><g><switch><foreignObject style="overflow: visible; text-align: left;" pointer-events="none" width="100%" height="100%" requiredFeatures="http://www.w3.org/TR/SVG11/feature#Extensibility"><div xmlns="http://www.w3.org/1999/xhtml" style="display: flex; align-items: unsafe flex-start; justify-content: unsafe center; width: 1px; height: 1px; padding-top: 347px; margin-left: 415px;"><div style="box-sizing: border-box; font-size: 0; text-align: center; color: #000000; "><div style="display: inline-block; font-size: 12px; font-family: Helvetica; color: light-dark(#000000, #ffffff); line-height: 1.2; pointer-events: all; white-space: nowrap; ">VMware</div></div></div></foreignObject><text x="415" y="359" fill="light-dark(#000000, #ffffff)" font-family="Helvetica" font-size="12px" text-anchor="middle">VMware</text></switch></g></g></g><g data-cell-id="72IUadlfIgPiFhbqOXH1-4"><g transform="translate(0.5,0.5)"><path d="M 0 513 L 0 490 L 200 490 L 200 513" fill="#ffffff" stroke="#000000" stroke-miterlimit="10" pointer-events="all" style="fill: light-dark(#ffffff, var(--ge-dark-color, #121212)); stroke: light-dark(rgb(0, 0, 0), rgb(255, 255, 255));"/><path d="M 0 513 L 0 690 L 200 690 L 200 513" fill="none" stroke="#000000" stroke-miterlimit="10" pointer-events="none" style="stroke: light-dark(rgb(0, 0, 0), rgb(255, 255, 255));"/><path d="M 0 513 L 200 513" fill="none" stroke="#000000" stroke-miterlimit="10" pointer-events="none" style="stroke: light-dark(rgb(0, 0, 0), rgb(255, 255, 255));"/></g><g><g><switch><foreignObject style="overflow: visible; text-align: left;" pointer-events="none" width="100%" height="100%" requiredFeatures="http://www.w3.org/TR/SVG11/feature#Extensibility"><div xmlns="http://www.w3.org/1999/xhtml" style="display: flex; align-items: unsafe center; justify-content: unsafe center; width: 198px; height: 1px; padding-top: 502px; margin-left: 1px;"><div style="box-sizing: border-box; font-size: 0; text-align: center; color: #000000; "><div style="display: inline-block; font-size: 12px; font-family: Helvetica; color: light-dark(#000000, #ffffff); line-height: 1.2; pointer-events: all; font-weight: bold; white-space: normal; word-wrap: normal; ">LAN</div></div></div></foreignObject><text x="100" y="505" fill="light-dark(#000000, #ffffff)" font-family="Helvetica" font-size="12px" text-anchor="middle" font-weight="bold">LAN</text></switch></g></g><g data-cell-id="72IUadlfIgPiFhbqOXH1-13"><g><image x="60" y="560" width="80" height="80" xlink:href="file:///opt/drawio/resources/app.asar/drawio/src/main/webapp/img/lib/clip_art/computers/Virtual_Machine_128x128.png"/></g><g><g><switch><foreignObject style="overflow: visible; text-align: left;" pointer-events="none" width="100%" height="100%" requiredFeatures="http://www.w3.org/TR/SVG11/feature#Extensibility"><div xmlns="http://www.w3.org/1999/xhtml" style="display: flex; align-items: unsafe flex-start; justify-content: unsafe center; width: 1px; height: 1px; padding-top: 647px; margin-left: 100px;"><div style="box-sizing: border-box; font-size: 0; text-align: center; color: #000000; background-color: #ffffff; "><div style="display: inline-block; font-size: 12px; font-family: Helvetica; color: light-dark(#000000, #ffffff); line-height: 1.2; pointer-events: all; background-color: light-dark(#ffffff, var(--ge-dark-color, #121212)); white-space: nowrap; ">Virtual Machines</div></div></div></foreignObject><text x="100" y="659" fill="light-dark(#000000, #ffffff)" font-family="Helvetica" font-size="12px" text-anchor="middle">Virtual Machi...</text></switch></g></g></g></g><g data-cell-id="72IUadlfIgPiFhbqOXH1-5"><g transform="translate(0.5,0.5)"><path d="M 630 513 L 630 490 L 830 490 L 830 513" fill="#ffffff" stroke="#000000" stroke-miterlimit="10" pointer-events="all" style="fill: light-dark(#ffffff, var(--ge-dark-color, #121212)); stroke: light-dark(rgb(0, 0, 0), rgb(255, 255, 255));"/><path d="M 630 513 L 630 690 L 830 690 L 830 513" fill="none" stroke="#000000" stroke-miterlimit="10" pointer-events="none" style="stroke: light-dark(rgb(0, 0, 0), rgb(255, 255, 255));"/><path d="M 630 513 L 830 513" fill="none" stroke="#000000" stroke-miterlimit="10" pointer-events="none" style="stroke: light-dark(rgb(0, 0, 0), rgb(255, 255, 255));"/></g><g><g><switch><foreignObject style="overflow: visible; text-align: left;" pointer-events="none" width="100%" height="100%" requiredFeatures="http://www.w3.org/TR/SVG11/feature#Extensibility"><div xmlns="http://www.w3.org/1999/xhtml" style="display: flex; align-items: unsafe center; justify-content: unsafe center; width: 198px; height: 1px; padding-top: 502px; margin-left: 631px;"><div style="box-sizing: border-box; font-size: 0; text-align: center; color: #000000; "><div style="display: inline-block; font-size: 12px; font-family: Helvetica; color: light-dark(#000000, #ffffff); line-height: 1.2; pointer-events: all; font-weight: bold; white-space: normal; word-wrap: normal; ">Malware Isolation Network </div></div></div></foreignObject><text x="730" y="505" fill="light-dark(#000000, #ffffff)" font-family="Helvetica" font-size="12px" text-anchor="middle" font-weight="bold">Malware Isolation Network </text></switch></g></g><g data-cell-id="72IUadlfIgPiFhbqOXH1-17"><g><image x="690" y="560" width="80" height="80" xlink:href="file:///opt/drawio/resources/app.asar/drawio/src/main/webapp/img/lib/clip_art/computers/Virtual_Machine_128x128.png"/></g><g><g><switch><foreignObject style="overflow: visible; text-align: left;" pointer-events="none" width="100%" height="100%" requiredFeatures="http://www.w3.org/TR/SVG11/feature#Extensibility"><div xmlns="http://www.w3.org/1999/xhtml" style="display: flex; align-items: unsafe flex-start; justify-content: unsafe center; width: 1px; height: 1px; padding-top: 647px; margin-left: 730px;"><div style="box-sizing: border-box; font-size: 0; text-align: center; color: #000000; background-color: #ffffff; "><div style="display: inline-block; font-size: 12px; font-family: Helvetica; color: light-dark(#000000, #ffffff); line-height: 1.2; pointer-events: all; background-color: light-dark(#ffffff, var(--ge-dark-color, #121212)); white-space: nowrap; ">Virtual Machines</div></div></div></foreignObject><text x="730" y="659" fill="light-dark(#000000, #ffffff)" font-family="Helvetica" font-size="12px" text-anchor="middle">Virtual Machi...</text></switch></g></g></g></g><g data-cell-id="72IUadlfIgPiFhbqOXH1-6"><g transform="translate(0.5,0.5)"><path d="M 210 513 L 210 490 L 410 490 L 410 513" fill="#ffffff" stroke="#000000" stroke-miterlimit="10" pointer-events="all" style="fill: light-dark(#ffffff, var(--ge-dark-color, #121212)); stroke: light-dark(rgb(0, 0, 0), rgb(255, 255, 255));"/><path d="M 210 513 L 210 690 L 410 690 L 410 513" fill="none" stroke="#000000" stroke-miterlimit="10" pointer-events="none" style="stroke: light-dark(rgb(0, 0, 0), rgb(255, 255, 255));"/><path d="M 210 513 L 410 513" fill="none" stroke="#000000" stroke-miterlimit="10" pointer-events="none" style="stroke: light-dark(rgb(0, 0, 0), rgb(255, 255, 255));"/></g><g><g><switch><foreignObject style="overflow: visible; text-align: left;" pointer-events="none" width="100%" height="100%" requiredFeatures="http://www.w3.org/TR/SVG11/feature#Extensibility"><div xmlns="http://www.w3.org/1999/xhtml" style="display: flex; align-items: unsafe center; justify-content: unsafe center; width: 198px; height: 1px; padding-top: 502px; margin-left: 211px;"><div style="box-sizing: border-box; font-size: 0; text-align: center; color: #000000; "><div style="display: inline-block; font-size: 12px; font-family: Helvetica; color: light-dark(#000000, #ffffff); line-height: 1.2; pointer-events: all; font-weight: bold; white-space: normal; word-wrap: normal; ">Attack Network</div></div></div></foreignObject><text x="310" y="505" fill="light-dark(#000000, #ffffff)" font-family="Helvetica" font-size="12px" text-anchor="middle" font-weight="bold">Attack Network</text></switch></g></g><g data-cell-id="72IUadlfIgPiFhbqOXH1-14"><g><image x="270" y="560" width="80" height="80" xlink:href="file:///opt/drawio/resources/app.asar/drawio/src/main/webapp/img/lib/clip_art/computers/Virtual_Machine_128x128.png"/></g><g><g><switch><foreignObject style="overflow: visible; text-align: left;" pointer-events="none" width="100%" height="100%" requiredFeatures="http://www.w3.org/TR/SVG11/feature#Extensibility"><div xmlns="http://www.w3.org/1999/xhtml" style="display: flex; align-items: unsafe flex-start; justify-content: unsafe center; width: 1px; height: 1px; padding-top: 647px; margin-left: 310px;"><div style="box-sizing: border-box; font-size: 0; text-align: center; color: #000000; background-color: #ffffff; "><div style="display: inline-block; font-size: 12px; font-family: Helvetica; color: light-dark(#000000, #ffffff); line-height: 1.2; pointer-events: all; background-color: light-dark(#ffffff, var(--ge-dark-color, #121212)); white-space: nowrap; ">Virtual Machines</div></div></div></foreignObject><text x="310" y="659" fill="light-dark(#000000, #ffffff)" font-family="Helvetica" font-size="12px" text-anchor="middle">Virtual Machi...</text></switch></g></g></g></g><g data-cell-id="72IUadlfIgPiFhbqOXH1-7"><g transform="translate(0.5,0.5)"><path d="M 420 513 L 420 490 L 620 490 L 620 513" fill="#ffffff" stroke="#000000" stroke-miterlimit="10" pointer-events="all" style="fill: light-dark(#ffffff, var(--ge-dark-color, #121212)); stroke: light-dark(rgb(0, 0, 0), rgb(255, 255, 255));"/><path d="M 420 513 L 420 690 L 620 690 L 620 513" fill="none" stroke="#000000" stroke-miterlimit="10" pointer-events="none" style="stroke: light-dark(rgb(0, 0, 0), rgb(255, 255, 255));"/><path d="M 420 513 L 620 513" fill="none" stroke="#000000" stroke-miterlimit="10" pointer-events="none" style="stroke: light-dark(rgb(0, 0, 0), rgb(255, 255, 255));"/></g><g><g><switch><foreignObject style="overflow: visible; text-align: left;" pointer-events="none" width="100%" height="100%" requiredFeatures="http://www.w3.org/TR/SVG11/feature#Extensibility"><div xmlns="http://www.w3.org/1999/xhtml" style="display: flex; align-items: unsafe center; justify-content: unsafe center; width: 198px; height: 1px; padding-top: 502px; margin-left: 421px;"><div style="box-sizing: border-box; font-size: 0; text-align: center; color: #000000; "><div style="display: inline-block; font-size: 12px; font-family: Helvetica; color: light-dark(#000000, #ffffff); line-height: 1.2; pointer-events: all; font-weight: bold; white-space: normal; word-wrap: normal; ">Target Network</div></div></div></foreignObject><text x="520" y="505" fill="light-dark(#000000, #ffffff)" font-family="Helvetica" font-size="12px" text-anchor="middle" font-weight="bold">Target Network</text></switch></g></g><g data-cell-id="72IUadlfIgPiFhbqOXH1-16"><g><image x="480" y="560" width="80" height="80" xlink:href="file:///opt/drawio/resources/app.asar/drawio/src/main/webapp/img/lib/clip_art/computers/Virtual_Machine_128x128.png"/></g><g><g><switch><foreignObject style="overflow: visible; text-align: left;" pointer-events="none" width="100%" height="100%" requiredFeatures="http://www.w3.org/TR/SVG11/feature#Extensibility"><div xmlns="http://www.w3.org/1999/xhtml" style="display: flex; align-items: unsafe flex-start; justify-content: unsafe center; width: 1px; height: 1px; padding-top: 647px; margin-left: 520px;"><div style="box-sizing: border-box; font-size: 0; text-align: center; color: #000000; background-color: #ffffff; "><div style="display: inline-block; font-size: 12px; font-family: Helvetica; color: light-dark(#000000, #ffffff); line-height: 1.2; pointer-events: all; background-color: light-dark(#ffffff, var(--ge-dark-color, #121212)); white-space: nowrap; ">Virtual Machines</div></div></div></foreignObject><text x="520" y="659" fill="light-dark(#000000, #ffffff)" font-family="Helvetica" font-size="12px" text-anchor="middle">Virtual Machi...</text></switch></g></g></g></g></g></g></g><switch><g requiredFeatures="http://www.w3.org/TR/SVG11/feature#Extensibility"/><a transform="translate(0,-5)" xlink:href="https://www.drawio.com/doc/faq/svg-export-text-problems" target="_blank"><text text-anchor="middle" font-size="10px" x="50%" y="100%">Text is not SVG - cannot display</text></a></switch></svg>